<?xml version="1.0" encoding="utf-8"?>
<!-- Uploaded to: SVG Repo, www.svgrepo.com, Generator: SVG Repo Mixer Tools -->
<svg fill="#000000" width="800px" height="800px" viewBox="0 0 32 32" version="1.1" xmlns="http://www.w3.org/2000/svg">
<title>ping-pong</title>
<path d="M7.624 17.465c1.498 4.926-3.429 6.857-6.857 10.286 0.788 2.641 0.764 2.664 3.429 3.429 3.429-3.429 5.143-8.571 10.286-6.857l-6.857-6.857zM28.305 24.257c0 2.369-1.944 4.291-4.344 4.291s-4.345-1.92-4.345-4.29c0-0.001 0-0.001 0-0.002-0-2.369 1.944-4.291 4.344-4.291s4.345 1.92 4.345 4.29c0 0.001 0 0.001 0 0.002zM19.212 24.020c0-0.001 0-0.001 0-0.002-0-2.48 2.035-4.491 4.546-4.491 1.022-0 1.966 0.333 2.725 0.895 4.56-3.919 7.267-9.916 1.112-16.071-12-12-23.399 9.685-19.971 13.113l6.857 6.857c0.804 0.804 2.612 0.792 4.753 0.149-0.015-0.148-0.023-0.299-0.023-0.451z"></path>
</svg>